<?xml version="1.0" standalone="no"?>
<!DOCTYPE svg PUBLIC "-//W3C//DTD SVG 20010904//EN"
 "http://www.w3.org/TR/2001/REC-SVG-20010904/DTD/svg10.dtd">
<svg version="1.0" xmlns="http://www.w3.org/2000/svg"
 width="45.000000pt" height="30.000000pt" viewBox="0 0 45.000000 30.000000"
 preserveAspectRatio="xMidYMid meet">

<g transform="translate(0.000000,30.000000) scale(0.100000,-0.100000)"
fill="#000000" stroke="none">
<path d="M36 217 c-14 -10 -17 -25 -14 -72 l3 -60 35 0 c29 0 36 4 38 23 4 25
-10 29 -28 7 -18 -22 -30 -9 -30 35 0 44 17 61 35 37 16 -22 25 -21 25 3 0 10
-9 24 -19 30 -24 13 -24 13 -45 -3z"/>
<path d="M121 195 c0 -16 3 -24 6 -17 4 10 8 10 19 1 11 -9 14 -7 14 10 0 14
-4 20 -11 15 -6 -3 -15 0 -20 7 -6 10 -8 5 -8 -16z"/>
<path d="M180 211 c0 -5 -2 -16 -5 -23 -4 -9 1 -14 13 -14 14 0 17 6 14 23 -4
22 -22 33 -22 14z"/>
<path d="M220 197 c0 -14 6 -24 15 -24 8 0 15 7 15 14 0 8 -4 11 -10 8 -5 -3
-10 -2 -10 4 0 5 6 12 13 14 7 3 5 6 -5 6 -12 1 -18 -6 -18 -22z"/>
<path d="M272 195 c0 -16 2 -22 5 -12 2 9 2 23 0 30 -3 6 -5 -1 -5 -18z"/>
<path d="M294 209 c-3 -6 -1 -15 6 -19 7 -4 9 -14 5 -21 -6 -11 -5 -11 5 -2
10 10 11 15 1 27 -9 11 -9 15 1 19 9 4 9 6 1 6 -6 1 -15 -4 -19 -10z"/>
<path d="M370 209 c0 -6 -7 -9 -15 -5 -8 3 -15 1 -15 -4 0 -6 6 -10 14 -10 8
0 17 -6 19 -12 3 -7 6 -1 6 15 1 15 -1 27 -4 27 -3 0 -5 -5 -5 -11z"/>
<path d="M404 206 c-4 -11 -2 -21 7 -27 18 -11 24 5 10 28 -9 17 -10 17 -17
-1z"/>
<path d="M383 133 c-23 -16 -31 -43 -13 -43 5 0 7 7 4 15 -4 10 -2 13 8 10 8
-3 20 1 27 9 17 21 0 26 -26 9z"/>
<path d="M122 115 c4 -33 22 -33 26 0 2 18 -1 25 -13 25 -12 0 -15 -7 -13 -25z
m15 -17 c-3 -7 -5 -2 -5 12 0 14 2 19 5 13 2 -7 2 -19 0 -25z"/>
<path d="M192 115 c0 -16 2 -22 5 -12 2 9 2 23 0 30 -3 6 -5 -1 -5 -18z"/>
<path d="M210 115 c0 -23 2 -25 21 -15 23 13 21 33 -4 38 -12 3 -17 -4 -17
-23z m30 5 c0 -5 -4 -10 -10 -10 -5 0 -10 5 -10 10 0 6 5 10 10 10 6 0 10 -4
10 -10z"/>
<path d="M266 132 c-2 -4 2 -16 10 -27 8 -10 14 -14 14 -8 0 7 -5 15 -11 19
-8 4 -7 9 2 15 10 6 10 9 2 9 -6 0 -14 -3 -17 -8z"/>
<path d="M310 100 c0 -11 4 -20 9 -20 5 0 7 9 4 20 -3 11 -7 20 -9 20 -2 0 -4
-9 -4 -20z"/>
</g>
</svg>
